<svg width="13" height="14" viewBox="0 0 13 14" fill="none" xmlns="http://www.w3.org/2000/svg">
<path d="M8.16576 7.24459L12.5335 2.87682C12.7408 2.66989 12.8574 2.38909 12.8577 2.09619C12.8579 1.8033 12.7418 1.52229 12.5349 1.315C12.328 1.1077 12.0472 0.991102 11.7543 0.990844C11.4614 0.990585 11.1804 1.10669 10.9731 1.31362L6.60531 5.68139L2.23754 1.31362C2.03025 1.10632 1.7491 0.989868 1.45594 0.989868C1.16278 0.989868 0.88163 1.10632 0.674336 1.31362C0.467042 1.52091 0.350586 1.80206 0.350586 2.09522C0.350586 2.38838 0.467042 2.66953 0.674336 2.87682L5.04211 7.24459L0.674336 11.6124C0.467042 11.8197 0.350586 12.1008 0.350586 12.394C0.350586 12.6871 0.467042 12.9683 0.674336 13.1756C0.88163 13.3829 1.16278 13.4993 1.45594 13.4993C1.7491 13.4993 2.03025 13.3829 2.23754 13.1756L6.60531 8.8078L10.9731 13.1756C11.1804 13.3829 11.4615 13.4993 11.7547 13.4993C12.0478 13.4993 12.329 13.3829 12.5363 13.1756C12.7436 12.9683 12.86 12.6871 12.86 12.394C12.86 12.1008 12.7436 11.8197 12.5363 11.6124L8.16576 7.24459Z" fill="white"/>
</svg>
