<svg width="40" height="40" viewBox="0 0 40 40" fill="none" xmlns="http://www.w3.org/2000/svg">
<circle cx="19.5938" cy="19.5938" r="19.5938" fill="#111111"/>
<path d="M16.2195 12.4599C16.9712 11.9298 17.723 11.6647 18.4747 11.6647C19.3451 11.6647 19.99 12.1474 20.4094 13.1127C20.7496 13.8961 21.0385 14.9367 21.2759 16.2344C21.5212 17.5321 21.7229 18.6083 21.8812 19.4628C22.2768 21.5993 22.807 23.5934 23.4717 25.445C25.529 17.7457 26.5973 13.5005 26.6764 12.7092C26.6922 12.5826 26.7001 12.3729 26.7001 12.0801C26.7001 11.7873 26.6289 11.5341 26.4865 11.3205C26.4865 11.2413 26.6012 11.1701 26.8307 11.1068C27.0602 11.0356 27.2936 11 27.531 11C28.2511 11 28.8327 11.2295 29.2758 11.6884C29.7189 12.1474 29.9405 12.6301 29.9405 13.1365C29.9405 13.6429 29.8337 14.3036 29.62 15.1187C29.4064 15.9337 29.0463 17.0019 28.5399 18.3234C28.0335 19.6448 27.6141 20.7131 27.2817 21.5281C26.9494 22.3431 26.3995 23.6488 25.6319 25.445C24.8723 27.2333 24.3935 28.3609 24.1957 28.8278C23.9188 28.8832 23.5825 28.9108 23.1868 28.9108C22.7991 28.9108 22.4193 28.8555 22.0474 28.7447C21.6834 28.6418 21.4341 28.4994 21.2996 28.3174C21.1176 28.0563 20.6507 26.5251 19.899 23.7239C19.1473 20.9149 18.6686 19.2096 18.4628 18.6083C18.2571 19.0197 17.992 19.9218 17.6676 21.3145C17.3431 22.7071 16.9989 24.1512 16.6349 25.6468C16.2709 27.1423 15.9386 28.2026 15.6379 28.8278C15.361 28.8832 15.0326 28.9108 14.6528 28.9108C14.2729 28.9108 13.9089 28.8555 13.5608 28.7447C13.2126 28.6418 12.9792 28.5073 12.8605 28.3411C12.7418 28.167 12.4451 27.3362 11.9703 25.8486C11.4955 24.353 10.993 22.7625 10.4629 21.0771C9.93271 19.3837 9.35507 17.7814 8.72995 16.27C8.11274 14.7507 7.61423 13.8724 7.23441 13.635C7.09198 13.548 6.9535 13.5005 6.81898 13.4926C6.69238 13.4847 6.56577 13.4767 6.43917 13.4688C6.31256 13.4609 6.22947 13.457 6.18991 13.457C6.0633 13.1484 6 12.9149 6 12.7567C6 12.5905 6.00396 12.4837 6.01187 12.4362C7.15924 11.7952 8.50839 11.4748 10.0593 11.4748C10.3284 11.4748 10.5262 11.4787 10.6528 11.4866C10.811 11.6528 11.084 12.3848 11.4718 13.6825C11.8595 14.9723 12.3976 16.8516 13.086 19.3204C13.7823 21.7892 14.3837 23.8545 14.8901 25.5162C15.99 20.4124 16.8248 17.0494 17.3946 15.4273C17.0622 14.5015 16.6705 13.5123 16.2195 12.4599Z" fill="#FE9E1A"/>
</svg>
