<svg width="24" height="24" viewBox="0 0 24 24" fill="none" xmlns="http://www.w3.org/2000/svg">
<circle cx="12" cy="12" r="12" fill="#FE9D1A"/>
<circle cx="11.9998" cy="12.1599" r="2.24" fill="white"/>
<path fill-rule="evenodd" clip-rule="evenodd" d="M10.0013 9.81626C10.5816 9.23603 11.353 8.91306 12.1736 8.91306C12.9941 8.91306 13.7655 9.23773 14.3458 9.81796C14.7139 10.1861 14.9769 10.6285 15.1201 11.1222H17.4261V8.02279C17.4261 7.29565 16.8641 6.73364 16.137 6.73364H8.23755C7.51042 6.73364 6.89355 7.29565 6.89355 8.02279V11.1222H9.22696C9.37019 10.6285 9.6332 10.1844 10.0013 9.81626ZM16.5484 9.01575C16.5484 9.20964 16.3912 9.36684 16.1973 9.36684H15.1441C14.9502 9.36684 14.793 9.20967 14.793 9.01575V7.96249C14.793 7.7686 14.9501 7.61141 15.1441 7.61141H16.1973C16.3912 7.61141 16.5484 7.76857 16.5484 7.96249V9.01575Z" fill="white"/>
<path fill-rule="evenodd" clip-rule="evenodd" d="M14.3458 14.1608C13.7655 14.741 12.9941 15.0571 12.1736 15.0571C11.353 15.0571 10.5816 14.7427 10.0013 14.1625C9.42219 13.5834 9.10282 12.7954 9.10161 12H6.89355V15.9223C6.89355 16.6494 7.51042 17.2663 8.23755 17.2663H16.137C16.8641 17.2663 17.4261 16.6494 17.4261 15.9223V12H15.2455C15.2443 12.7954 14.9249 13.5816 14.3458 14.1608Z" fill="white"/>
</svg>
