<svg width="24" height="24" viewBox="0 0 24 24" fill="none" xmlns="http://www.w3.org/2000/svg">
<circle cx="12" cy="12" r="12" fill="#FE9D1A"/>
<path fill-rule="evenodd" clip-rule="evenodd" d="M16.9986 6.3999H7.38416C6.85902 6.3999 6.3999 6.778 6.3999 7.29714V16.9326C6.3999 17.4548 6.85902 17.9199 7.38416 17.9199H16.9956C17.5238 17.9199 17.9199 17.4518 17.9199 16.9326V7.29714C17.9229 6.778 17.5238 6.3999 16.9986 6.3999ZM9.97098 16.0024H8.32056V10.8711H9.97098V16.0024ZM9.20279 10.0909H9.19078C8.66265 10.0909 8.32056 9.69783 8.32056 9.2057C8.32056 8.70457 8.67165 8.32047 9.21179 8.32047C9.75193 8.32047 10.082 8.70157 10.094 9.2057C10.094 9.69783 9.75193 10.0909 9.20279 10.0909ZM16.0025 16.0025H14.3521V13.1967C14.3521 12.5246 14.112 12.0654 13.5148 12.0654C13.0587 12.0654 12.7887 12.3745 12.6686 12.6746C12.6236 12.7826 12.6116 12.9297 12.6116 13.0797V16.0025H10.9612V10.8711H12.6116V11.5853C12.8517 11.2432 13.2268 10.7511 14.1 10.7511C15.1833 10.7511 16.0025 11.4653 16.0025 13.0047V16.0025Z" fill="white"/>
</svg>
