<svg width="24" height="24" viewBox="0 0 24 24" fill="none" xmlns="http://www.w3.org/2000/svg">
<circle cx="12" cy="12" r="12" fill="#FE9D1A"/>
<path fill-rule="evenodd" clip-rule="evenodd" d="M18.5598 8.25337C18.0878 8.45871 17.5833 8.59737 17.0516 8.66137C17.5941 8.34137 18.0119 7.83471 18.2071 7.23204C17.6999 7.52804 17.1384 7.74404 16.539 7.85871C16.0589 7.35471 15.3754 7.04004 14.6213 7.04004C13.1701 7.04004 11.9957 8.19737 11.9957 9.62404C11.9957 9.82671 12.0174 10.024 12.0635 10.2134C9.87996 10.1067 7.94328 9.07737 6.64945 7.51204C6.42431 7.89337 6.29412 8.33871 6.29412 8.81071C6.29412 9.70671 6.76066 10.4987 7.46589 10.9627C7.0319 10.952 6.62503 10.8347 6.27242 10.64C6.27242 10.6507 6.27242 10.6614 6.27242 10.672C6.27242 11.9254 7.17837 12.968 8.37998 13.2054C8.16027 13.264 7.927 13.296 7.68831 13.296C7.52014 13.296 7.35468 13.28 7.19465 13.248C7.52828 14.2747 8.49933 15.0214 9.6494 15.0427C8.75159 15.736 7.61779 16.1494 6.38634 16.1494C6.17477 16.1494 5.96591 16.136 5.75977 16.112C6.91798 16.8534 8.29861 17.28 9.7796 17.28C14.6159 17.28 17.2578 13.3414 17.2578 9.92537C17.2578 9.81337 17.2551 9.70137 17.2497 9.59204C17.7623 9.22671 18.2071 8.77337 18.5598 8.25337Z" fill="white"/>
</svg>
